<svg xmlns="http://www.w3.org/2000/svg" width="39.926" height="39.926" viewBox="0 0 39.926 39.926">
  <g id="Groupe_1286" data-name="Groupe 1286" transform="translate(-1851.074 -21.799)">
    <path id="Tracé_1009" data-name="Tracé 1009" d="M.437-15.226a8.043,8.043,0,0,1,.926-.667,7.248,7.248,0,0,1,1.075-.546,6.732,6.732,0,0,1,1.236-.368,7.3,7.3,0,0,1,1.432-.132,6.181,6.181,0,0,1,1.949.288,4.221,4.221,0,0,1,1.478.822,3.6,3.6,0,0,1,.937,1.288A4.15,4.15,0,0,1,9.8-12.868a4.26,4.26,0,0,1-.242,1.518,4.14,4.14,0,0,1-.615,1.1,4.663,4.663,0,0,1-.816.811q-.443.339-.84.638a7.028,7.028,0,0,0-.69.587,1.218,1.218,0,0,0-.362.644l-.322,1.61H3.473L3.22-7.809q-.011-.069-.017-.138T3.2-8.085a1.614,1.614,0,0,1,.241-.885,3.142,3.142,0,0,1,.609-.7,9.4,9.4,0,0,1,.794-.609,7.178,7.178,0,0,0,.793-.633,3.2,3.2,0,0,0,.609-.759,1.961,1.961,0,0,0,.242-.995,1.4,1.4,0,0,0-.454-1.1,1.8,1.8,0,0,0-1.248-.408,3.489,3.489,0,0,0-1.018.127,4.1,4.1,0,0,0-.7.282q-.293.155-.512.282a.866.866,0,0,1-.437.127.792.792,0,0,1-.736-.425ZM2.553-1.806a1.909,1.909,0,0,1,.155-.77A1.948,1.948,0,0,1,3.134-3.2a2.03,2.03,0,0,1,.638-.42,2.05,2.05,0,0,1,.805-.155,2.02,2.02,0,0,1,.793.155,2.1,2.1,0,0,1,.644.42,1.9,1.9,0,0,1,.431.621,1.909,1.909,0,0,1,.155.77,1.95,1.95,0,0,1-.155.776A1.888,1.888,0,0,1,6.015-.4a2.019,2.019,0,0,1-.644.414,2.088,2.088,0,0,1-.793.149A2.119,2.119,0,0,1,3.772.012,1.952,1.952,0,0,1,3.134-.4a1.931,1.931,0,0,1-.426-.627A1.95,1.95,0,0,1,2.553-1.806Z" transform="translate(1865.714 50.527)" fill="#243372"/>
    <g id="Ellipse_181" data-name="Ellipse 181" transform="translate(1851.074 21.799)" fill="none" stroke="#243372" stroke-width="2">
      <circle cx="19.963" cy="19.963" r="19.963" stroke="none"/>
      <circle cx="19.963" cy="19.963" r="18.963" fill="none"/>
    </g>
  </g>
</svg>
