<?xml version="1.0" standalone="no"?>
<!DOCTYPE svg PUBLIC "-//W3C//DTD SVG 20010904//EN"
 "http://www.w3.org/TR/2001/REC-SVG-20010904/DTD/svg10.dtd">
<svg version="1.0" xmlns="http://www.w3.org/2000/svg"
 width="282.000000pt" height="282.000000pt" viewBox="0 0 282.000000 282.000000"
 preserveAspectRatio="xMidYMid meet">
<metadata>
Created by potrace 1.11, written by Peter Selinger 2001-2013
</metadata>
<g transform="translate(0.000000,282.000000) scale(0.100000,-0.100000)"
fill="#000000" stroke="none">
<path d="M1397 2124 c-3 -4 -23 -7 -44 -8 -21 -1 -44 -5 -51 -9 -6 -5 -12 -5
-12 -1 0 4 -10 -1 -22 -12 -19 -15 -20 -16 -9 -1 15 19 2 24 -17 5 -9 -9 -12
-9 -12 0 0 8 -12 7 -44 -2 -25 -8 -47 -11 -50 -8 -6 5 -10 -13 -7 -35 1 -6 -4
-15 -10 -19 -8 -5 -10 -2 -7 8 9 23 -7 42 -28 33 -11 -5 -21 -9 -24 -9 -3 -1
-9 -4 -15 -7 -5 -4 -18 -5 -28 -4 -9 2 -15 0 -12 -5 8 -13 75 -2 87 14 3 5 5
-2 5 -16 -2 -21 -5 -24 -19 -17 -22 12 -29 11 -25 -2 1 -6 -5 -13 -13 -15 -58
-12 -69 -13 -75 -4 -4 6 1 7 11 3 14 -5 16 -3 11 13 -6 17 -6 17 5 3 14 -17
38 -15 38 3 0 6 -3 8 -6 5 -4 -3 -15 -2 -25 3 -12 7 -20 7 -24 0 -4 -6 -10 -8
-15 -5 -5 3 -11 1 -15 -4 -3 -5 -14 -8 -25 -6 -13 3 -18 0 -14 -7 5 -7 2 -9
-9 -5 -12 5 -14 0 -11 -21 3 -15 2 -23 -2 -19 -4 4 -18 0 -31 -8 -13 -9 -23
-12 -23 -8 0 14 17 35 26 33 5 -1 9 3 10 10 2 6 1 7 -3 0 -2 -5 -9 -8 -13 -5
-10 6 -44 -54 -36 -63 3 -3 6 -1 6 5 0 5 6 10 13 11 14 1 51 10 55 12 1 2 7 4
12 5 6 1 12 4 15 5 3 1 13 3 23 4 9 1 22 4 27 7 12 7 87 23 98 21 4 -1 7 2 7
6 0 5 16 8 35 7 19 -1 32 1 30 5 -3 4 10 7 28 7 52 0 101 6 119 15 9 4 19 4
22 -1 3 -4 23 -6 43 -2 57 9 285 1 359 -13 10 -2 39 -7 64 -10 25 -3 61 -10
80 -16 54 -16 88 -12 100 9 28 54 -2 73 -155 94 -60 8 -117 15 -125 16 -178
10 -240 10 -246 0 -5 -8 -8 -8 -13 0 -4 6 -10 8 -14 5z m-172 -54 c-3 -5 -16
-10 -28 -9 -20 1 -20 2 3 9 14 4 26 8 28 9 2 1 0 -3 -3 -9z m-67 -25 c-3 -3
-9 2 -12 12 -6 14 -5 15 5 6 7 -7 10 -15 7 -18z m32 -5 c0 -5 -2 -10 -4 -10
-3 0 -8 5 -11 10 -3 6 -1 10 4 10 6 0 11 -4 11 -10z m-233 -17 c-4 -3 -2 -12
4 -20 12 -13 11 -15 -18 -17 -10 -1 -23 -5 -29 -9 -7 -4 -14 0 -17 8 -4 9 -1
12 9 8 9 -3 14 0 12 8 -2 7 2 13 9 14 6 0 15 3 19 8 4 4 10 7 12 7 3 0 2 -3
-1 -7z"/>
<path d="M924 2002 c4 -3 14 -7 22 -8 9 -1 13 0 10 4 -4 3 -14 7 -22 8 -9 1
-13 0 -10 -4z"/>
<path d="M790 1975 c-24 -13 -24 -14 -3 -12 12 1 25 7 27 14 6 16 7 16 -24 -2z"/>
<path d="M764 1943 c19 -23 32 -31 22 -14 -4 5 -3 11 1 14 5 2 3 3 -3 1 -6 -1
-18 3 -25 9 -7 7 -5 2 5 -10z"/>
<path d="M734 1933 c2 -9 11 -17 20 -19 17 -2 17 -2 0 17 -21 23 -23 23 -20 2z"/>
<path d="M676 1906 c10 -8 21 -12 24 -10 5 6 -21 24 -34 24 -6 0 -1 -6 10 -14z"/>
<path d="M555 1840 c-3 -5 -1 -10 4 -10 6 0 11 5 11 10 0 6 -2 10 -4 10 -3 0
-8 -4 -11 -10z"/>
<path d="M1949 1793 c15 -28 64 -70 89 -76 23 -5 23 -5 6 21 -30 48 -57 72
-81 72 -20 0 -22 -3 -14 -17z"/>
<path d="M711 1773 c-15 -13 -22 -31 -24 -63 -2 -35 -7 -45 -24 -50 -15 -4
-18 -10 -14 -23 4 -10 10 -18 14 -18 4 1 11 1 16 1 4 0 8 -61 7 -135 -1 -134
-1 -135 21 -135 23 0 23 1 23 139 l0 138 27 -3 c27 -3 47 12 37 28 -3 4 -19 8
-35 8 -29 0 -30 1 -27 43 3 40 4 42 36 42 23 0 32 4 32 16 0 32 -56 39 -89 12z"/>
<path d="M842 1778 c-26 -26 1 -65 38 -53 32 10 20 65 -15 65 -6 0 -16 -5 -23
-12z"/>
<path d="M1314 1776 c-10 -26 1 -51 23 -54 30 -4 49 31 27 52 -19 20 -43 21
-50 2z"/>
<path d="M0 1567 c0 -117 3 -216 6 -219 3 -3 13 -4 22 -1 16 4 17 25 17 216
l0 212 -22 3 -23 3 0 -214z"/>
<path d="M1706 1772 c-3 -6 -5 -32 -3 -58 2 -47 1 -49 -25 -52 -19 -2 -28 -9
-28 -22 0 -14 6 -18 25 -15 14 1 25 -3 26 -9 0 -6 1 -67 2 -136 2 -118 3 -125
22 -128 20 -3 21 2 20 129 -1 135 0 137 42 143 10 2 19 10 21 19 3 13 -4 17
-30 17 l-34 0 1 57 c0 46 -3 58 -17 61 -9 2 -19 -1 -22 -6z"/>
<path d="M213 1659 c-46 -14 -90 -72 -98 -131 -6 -40 -3 -57 17 -96 12 -26 37
-56 54 -68 63 -41 169 -25 214 34 24 30 25 41 4 49 -9 3 -21 -3 -30 -16 -21
-29 -66 -51 -108 -51 -44 0 -88 36 -103 84 l-11 35 135 0 c149 -1 158 3 141
55 -29 87 -122 133 -215 105z m127 -51 c21 -13 55 -68 43 -69 -46 -5 -216 -2
-219 3 -9 14 30 61 61 74 32 15 85 11 115 -8z"/>
<path d="M1066 1655 c-16 -9 -35 -23 -42 -33 -12 -15 -13 -14 -14 11 0 20 -5
27 -20 27 -23 0 -22 5 -22 -165 1 -164 -1 -154 22 -148 18 5 20 14 20 87 0
109 13 152 53 176 40 25 75 25 107 1 23 -19 25 -25 27 -137 3 -120 8 -139 31
-125 9 5 13 40 13 120 0 96 -3 117 -21 146 -32 51 -99 69 -154 40z"/>
<path d="M1472 1660 c-13 -6 -29 -24 -36 -42 -20 -47 -3 -82 64 -126 60 -40
71 -63 44 -93 -21 -23 -52 -24 -83 -3 -21 15 -24 15 -38 1 -14 -14 -13 -18 18
-36 49 -30 94 -27 130 8 55 55 32 119 -58 165 -44 22 -56 47 -37 74 18 26 35
27 73 7 25 -13 31 -13 41 0 10 12 6 18 -22 35 -36 22 -60 24 -96 10z"/>
<path d="M1970 1663 c-70 -23 -109 -72 -115 -145 -5 -60 20 -116 66 -151 34
-24 106 -33 152 -17 34 11 87 60 87 81 0 24 -30 17 -65 -17 -36 -34 -42 -36
-89 -31 -40 3 -55 11 -78 36 -15 17 -28 42 -28 56 0 24 0 24 108 24 59 0 121
0 138 0 l32 1 -9 41 c-6 23 -20 54 -32 70 -35 45 -115 70 -167 52z m93 -49
c32 -15 78 -73 60 -75 -33 -4 -207 -3 -213 1 -16 10 15 55 50 72 43 22 60 22
103 2z"/>
<path d="M2305 1648 c-28 -22 -39 -23 -31 -3 4 11 -1 15 -19 15 l-25 0 0 -155
c0 -154 0 -155 23 -155 21 0 22 3 23 93 0 50 4 104 7 119 9 35 44 67 68 63 23
-5 48 33 27 39 -25 8 -50 3 -73 -16z"/>
<path d="M2493 1651 c-84 -44 -112 -159 -58 -242 33 -51 84 -73 154 -66 49 5
61 11 95 48 36 38 38 42 21 52 -14 8 -22 6 -34 -9 -59 -71 -158 -72 -201 -2
-38 63 -35 65 111 66 73 0 136 5 141 10 14 14 -7 75 -39 112 -40 48 -130 63
-190 31z m133 -39 c21 -11 54 -54 54 -69 0 -6 -145 -9 -218 -4 -19 1 14 54 46
73 28 17 87 17 118 0z"/>
<path d="M845 1510 c0 -134 2 -153 18 -161 25 -14 26 -4 24 161 -2 137 -3 145
-22 148 -19 3 -20 -3 -20 -148z"/>
<path d="M1319 1648 c0 -7 0 -76 -1 -153 0 -134 0 -140 20 -143 20 -3 21 2 24
110 4 167 1 198 -23 198 -10 0 -19 -6 -20 -12z"/>
<path d="M2799 1348 c-1 -2 -3 -145 -4 -318 -1 -173 -3 -317 -4 -320 0 -3 -67
-5 -148 -5 -152 1 -173 -1 -173 -16 0 -5 79 -9 175 -9 l175 0 0 329 c0 209 -4
332 -10 336 -5 3 -11 5 -11 3z"/>
<path d="M1095 1269 c-45 -22 -63 -84 -39 -131 24 -46 79 -62 126 -37 16 8 22
8 29 -2 12 -20 17 -9 19 41 4 88 0 140 -10 140 -5 0 -10 -7 -10 -16 0 -14 -2
-14 -22 0 -25 18 -63 20 -93 5z m92 -35 c7 -7 16 -26 19 -43 5 -24 1 -35 -20
-56 -31 -31 -69 -28 -98 7 -57 66 38 154 99 92z"/>
<path d="M1287 1259 c-20 -28 -11 -55 29 -80 36 -22 45 -53 18 -63 -8 -3 -24
-2 -33 4 -23 12 -35 1 -20 -17 19 -22 67 -16 85 12 21 31 12 55 -31 83 -35 22
-45 47 -22 55 6 2 20 0 30 -5 26 -13 44 2 22 19 -27 19 -62 16 -78 -8z"/>
<path d="M1427 1262 c-26 -28 -21 -44 25 -84 40 -34 42 -38 27 -53 -13 -13
-21 -15 -37 -6 -27 14 -32 14 -32 -3 0 -18 34 -30 64 -22 12 3 28 17 34 31 13
27 6 38 -57 88 -18 14 -20 21 -11 32 9 10 18 11 37 4 33 -12 44 -2 19 17 -27
19 -50 18 -69 -4z"/>
<path d="M1556 1272 c-2 -4 -4 -38 -3 -76 2 -58 5 -71 26 -87 40 -32 114 -18
125 25 10 36 7 146 -4 146 -12 0 -11 3 -15 -79 -2 -50 -6 -66 -21 -74 -56 -32
-84 -6 -84 79 0 57 -11 87 -24 66z"/>
<path d="M1759 1275 c-5 -47 -4 -168 2 -177 11 -17 17 3 23 76 4 57 25 94 47
81 4 -3 10 -1 14 5 9 15 -21 23 -43 11 -13 -7 -22 -7 -30 1 -7 7 -12 8 -13 3z"/>
<path d="M1904 1262 c-52 -42 -55 -114 -7 -152 31 -24 85 -26 107 -4 15 14 17
14 22 0 3 -9 10 -16 15 -16 12 0 11 177 -1 185 -5 3 -10 -1 -10 -9 0 -20 -7
-20 -26 -1 -21 20 -74 19 -100 -3z m84 -11 c22 -2 43 -66 32 -96 -13 -34 -55
-50 -92 -34 -15 6 -28 12 -28 13 0 1 -4 16 -10 35 -8 30 -6 36 19 61 16 17 36
27 47 25 10 -2 25 -4 32 -4z"/>
<path d="M2107 1270 c-7 -19 -7 -127 -1 -158 8 -42 24 -12 24 46 0 63 5 74 38
91 27 14 61 0 64 -27 0 -9 2 -35 3 -57 2 -22 3 -48 4 -58 1 -10 6 -17 13 -15
14 5 12 133 -3 160 -14 26 -58 34 -89 16 -24 -14 -28 -14 -37 1 -10 14 -12 14
-16 1z"/>
<path d="M2354 1268 c-67 -32 -63 -140 6 -168 35 -15 94 -8 115 14 22 22 2 28
-33 10 -79 -39 -151 51 -87 110 27 25 77 28 98 7 16 -16 37 -14 31 3 -12 31
-87 45 -130 24z"/>
<path d="M2561 1253 c-44 -41 -45 -96 -5 -137 37 -36 91 -36 130 1 31 28 17
48 -14 20 -42 -37 -102 -25 -115 22 -5 20 -1 21 74 21 75 0 79 1 79 23 -1 26
-17 49 -47 65 -35 19 -71 14 -102 -15z m106 -15 c29 -24 14 -35 -47 -35 -65 1
-77 13 -37 40 23 15 62 13 84 -5z"/>
<path d="M1660 1004 c-45 -20 -108 -72 -124 -103 -17 -35 -10 -58 22 -75 33
-16 65 -12 110 14 44 26 45 26 21 -15 -11 -19 -19 -42 -17 -52 3 -12 17 7 42
56 20 40 35 75 32 78 -2 3 -20 -6 -38 -20 -75 -56 -124 -69 -153 -41 -15 15
-15 18 1 43 25 40 85 90 123 102 29 10 36 9 47 -6 7 -9 10 -23 7 -31 -3 -8 1
-14 10 -14 13 0 14 6 6 32 -5 18 -9 33 -9 34 0 10 -56 8 -80 -2z"/>
<path d="M2236 990 c-42 -37 -67 -103 -54 -142 13 -38 68 -48 117 -22 93 50
108 172 23 179 -16 1 -34 5 -40 9 -6 3 -26 -7 -46 -24z m121 -17 c26 -33 -20
-114 -79 -138 -36 -14 -43 -14 -64 -1 -25 17 -25 46 0 95 34 64 108 87 143 44z"/>
<path d="M576 985 c-9 -14 -13 -25 -9 -25 12 1 46 50 35 50 -6 0 -17 -11 -26
-25z"/>
<path d="M523 978 c-19 -24 -71 -142 -67 -150 7 -11 32 -10 39 2 3 6 -1 7 -9
4 -23 -9 -20 3 23 84 21 39 35 72 31 72 -4 0 -12 -6 -17 -12z"/>
<path d="M1358 949 c-14 -33 -20 -39 -31 -30 -11 8 -18 7 -29 -7 -21 -24 -38
-58 -38 -76 0 -19 31 -21 48 -4 9 9 12 9 12 -1 0 -8 7 -11 20 -8 11 3 23 1 26
-5 3 -5 13 -3 24 7 12 11 20 13 25 6 3 -6 14 -11 23 -11 14 0 15 2 3 9 -12 8
-13 14 -3 36 20 43 13 51 -13 15 -23 -32 -55 -58 -55 -46 0 14 24 56 32 56 5
0 6 5 3 10 -10 15 -24 3 -40 -36 -14 -33 -35 -47 -35 -21 0 6 14 39 30 72 31
63 35 75 23 75 -5 0 -16 -19 -25 -41z m-28 -53 c0 -16 -38 -66 -50 -66 -11 0
-3 25 18 58 16 25 32 29 32 8z"/>
<path d="M2080 919 c-34 -69 -55 -97 -66 -86 -8 8 25 67 41 74 8 3 13 9 10 14
-11 16 -34 -4 -56 -47 -24 -50 -39 -53 -19 -4 16 38 8 47 -22 26 -12 -9 -17
-16 -9 -16 9 0 11 -9 6 -29 -6 -28 -5 -30 27 -29 18 0 41 5 51 10 11 5 17 5
17 -2 0 -5 8 -10 18 -9 10 0 12 3 5 6 -19 7 -16 27 17 95 33 69 33 68 22 68
-5 0 -24 -32 -42 -71z"/>
<path d="M2674 933 c-24 -35 -44 -81 -44 -99 0 -17 36 -19 46 -3 4 8 0 9 -15
4 -21 -6 -21 -6 -4 29 9 20 24 36 32 37 11 0 12 2 3 6 -10 4 -10 10 3 29 8 13
11 24 6 24 -5 0 -17 -12 -27 -27z"/>
<path d="M576 887 c-27 -35 -33 -62 -16 -72 6 -3 15 -3 22 1 18 11 61 12 75 2
16 -13 33 -1 33 21 0 10 7 24 15 31 8 7 15 18 15 25 0 21 -32 27 -49 10 -13
-12 -13 -21 -4 -45 9 -24 9 -30 -2 -30 -7 0 -16 6 -18 13 -4 9 -8 8 -16 -3
-17 -24 -21 -6 -6 24 12 22 12 32 4 42 -17 21 -25 17 -53 -19z m119 -6 c-3
-12 -11 -19 -16 -16 -5 4 -5 14 2 26 13 26 23 18 14 -10z m-75 10 c0 -13 -51
-73 -57 -67 -6 6 13 40 33 60 18 18 24 20 24 7z"/>
<path d="M752 900 c-9 -15 -10 -26 -1 -41 13 -26 5 -36 -16 -19 -10 8 -15 9
-15 2 0 -16 34 -32 49 -23 9 6 9 13 0 35 -11 23 -10 29 5 44 16 16 17 15 10
-13 -5 -23 -4 -27 6 -19 15 15 9 48 -10 52 -8 1 -21 -7 -28 -18z"/>
<path d="M1846 887 c-27 -35 -33 -62 -16 -72 6 -3 16 -3 22 2 7 4 25 6 39 5
19 -2 31 4 43 23 10 15 15 29 12 32 -3 4 -1 12 5 20 8 9 8 13 0 13 -6 0 -20
-18 -31 -40 -11 -22 -25 -40 -30 -40 -14 0 -12 12 6 38 12 18 13 26 4 37 -18
22 -26 19 -54 -18z m28 -26 c-20 -35 -52 -45 -34 -12 13 26 41 53 47 47 3 -2
-3 -18 -13 -35z"/>
<path d="M2497 902 c-23 -27 -38 -62 -32 -72 8 -13 52 -13 60 0 4 6 13 5 24
-2 25 -16 55 -3 46 20 -16 37 -16 49 -2 55 11 4 13 0 10 -14 -3 -10 -1 -19 5
-19 16 0 21 38 5 44 -24 10 -32 7 -43 -14 -8 -14 -7 -25 2 -39 15 -24 4 -39
-16 -22 -11 9 -20 10 -35 2 -24 -13 -41 -14 -41 -2 0 5 14 14 30 21 17 7 30
20 30 30 0 25 -25 32 -43 12z m27 -17 c-4 -8 -13 -15 -21 -15 -13 0 -13 3 -3
15 7 8 16 15 21 15 5 0 6 -7 3 -15z"/>
<path d="M825 878 c-22 -44 -15 -74 14 -58 11 5 26 8 33 7 7 -2 10 -2 6 0 -4
2 2 18 12 35 29 48 12 54 -21 8 -34 -47 -57 -54 -34 -9 9 17 14 36 12 42 -2 7
-12 -4 -22 -25z"/>
<path d="M922 864 c-27 -55 -16 -56 21 -2 19 27 32 37 39 30 7 -7 6 -17 -2
-32 -10 -18 -9 -25 4 -38 8 -9 19 -12 23 -8 4 4 1 11 -7 16 -16 10 -15 12 23
28 29 13 36 39 12 48 -8 4 -22 1 -30 -6 -8 -7 -15 -8 -15 -2 0 5 -11 10 -24
10 -18 0 -28 -11 -44 -44z m108 16 c-6 -11 -15 -20 -21 -20 -6 0 -6 7 1 20 6
11 15 20 21 20 6 0 6 -7 -1 -20z"/>
<path d="M1074 883 c-10 -15 -27 -36 -38 -46 -19 -17 -19 -18 -2 -13 10 4 24
2 31 -4 9 -7 16 -5 26 6 12 15 11 16 -9 10 l-22 -7 21 36 c25 42 19 60 -7 18z"/>
<path d="M1121 881 c-20 -28 -20 -61 1 -61 5 0 6 4 3 10 -3 5 1 23 10 41 22
41 13 48 -14 10z"/>
<path d="M1182 895 c-4 -5 -15 -25 -25 -42 -26 -47 -2 -41 28 7 14 23 30 38
35 35 6 -3 10 -2 10 4 0 13 -39 10 -48 -4z"/>
<path d="M1769 888 c-17 -32 -28 -68 -21 -68 4 0 17 18 30 40 13 22 27 38 32
35 5 -3 11 -1 15 5 4 6 -5 9 -20 8 -15 -2 -31 -10 -36 -20z"/>
<path d="M2381 879 c-12 -19 -21 -38 -21 -42 0 -14 30 -19 44 -8 10 8 16 9 21
1 3 -5 11 -10 18 -10 8 0 8 3 0 11 -9 9 -8 19 3 41 9 17 12 33 8 36 -4 4 -9 1
-12 -7 -2 -7 -17 -28 -33 -45 -31 -34 -39 -21 -13 20 9 13 14 27 11 30 -3 4
-15 -9 -26 -27z"/>
</g>
</svg>
